<svg height="512" viewBox="0 0 60 60" width="512" xmlns="http://www.w3.org/2000/svg"><g id="Page-1" fill="none" fill-rule="evenodd"><g id="036---Octopus" fill="rgb(0,0,0)" fill-rule="nonzero" transform="translate(-1)"><path id="Shape" d="m31 4c-.7228921-.00309379-1.4448697.05174841-2.159.164-.5139272.08368163-.8776358.5477302-.8361024 1.06676663.0415333.51903642.4744076.91934232.9951024.92023337.0536013.00010401.1071186-.00424427.16-.013.6086858-.09487333 1.2239722-.14101981 1.84-.138.5522847 0 1-.44771525 1-1s-.4477153-1-1-1z"/><path id="Shape" d="m24.343 6.185c-1.8106719 1.72958978-3.0096509 4.0011916-3.416 6.472-.1198458.5393061.2201939 1.0736542.7595 1.1935s1.0736542-.2201939 1.1935-.7595c.3213676-2.0516368 1.2951305-3.94516209 2.777-5.4.4164227-.36285109.459851-.99457728.097-1.41099997-.3628511-.41642269-.9945773-.45985108-1.411-.09700003z"/><path id="Shape" d="m57.06 42.044c2.4697914-2.1614642 3.9025933-5.2721716 3.94-8.554 0-2.706-1.357-7-5-7-1.1473224-.0249816-2.2783821.2745083-3.263.864-.5755442.3592174-.9254797.9895547-.926 1.668-.0049598.6931061.3471844 1.3399632.932 1.712.9195535.60153 1.3876513 1.69665 1.187 2.777-.367 1.258-2.163 1.979-4.93 1.979-3.5 0-5.716-1.492-6.616-4.409.073-.2.141-.408.215-.608.1919675-.4637085.571266-.824478 1.044-.993 2.1134434-.8631998 3.6731793-2.7027681 4.1791413-4.9289215.5059621-2.2261534-.1054237-4.5591761-1.6381413-6.2510785-.3115017-.3166923-.5000927-.733932-.532-1.177-.0460175-1.7977519-.2721482-3.586362-.675-5.339-2.165-9.74-8.795-11.784-13.977-11.784s-11.812 2.044-13.976 11.781c-.4034736 1.7528915-.6299426 3.5418625-.676 5.34-.0316749.4434195-.2202828.8610512-.532 1.178-1.5331572 1.6919091-2.1448182 4.0252206-1.6388327 6.2516765.5059856 2.2264559 2.0660234 4.0662259 4.1798327 4.9293235.472734.168522.8520325.5292915 1.044.993.074.2.142.407.215.608-.9 2.919-3.116 4.409-6.616 4.409-2.767 0-4.563-.721-4.93-1.979-.20052799-1.0826348.26967569-2.1796453 1.192-2.781.58241383-.3718003.9326175-1.0170515.927-1.708-.0011971-.6808542-.35352603-1.3129293-.932-1.672-.98325339-.5870996-2.11208077-.8851627-3.257-.86-3.643 0-5 4.294-5 7 .03740674 3.2818284 1.4702086 6.3925358 3.94 8.554 2.36 1.967 5.586 2.956 9.638 2.956 1.3762077-.0068472 2.7503645-.1070775 4.113-.3-.5296067 1.3431839-1.2167451 2.6187706-2.047 3.8-1.152 1.6-3.065 3.5-5.644 3.5-1.993 0-3.4-.463-4.183-1.377-.73791234-1.0611214-.99222355-2.384993-.7-3.644.16402154-.9371973-.35864733-1.8593076-1.247-2.2-.86812841-.3544762-1.86575162-.0458077-2.382.737-1.04258496 1.6339511-1.56170526 3.5471606-1.488 5.484 0 5.972 3.7 9 11 9 2.1608422-.0604499 4.2753919-.6401074 6.165-1.69.935.877 2.652 1.69 5.835 1.69 2.9504072.1857567 5.7188699-1.4357715 7-4.1 1.2811301 2.6642285 4.0495928 4.2857567 7 4.1 3.183 0 4.9-.813 5.835-1.69 1.8896081 1.0498926 4.0041578 1.6295501 6.165 1.69 7.3 0 11-3.028 11-9 .0739456-1.9361365-.4440777-3.8488111-1.485-5.483-.5168506-.7826311-1.5145583-1.0911962-2.383-.737-.8880798.3410094-1.4106095 1.262874-1.247 2.2.2921836 1.2586868.0378644 2.5822363-.7 3.643-.785.914-2.192 1.377-4.185 1.377-2.579 0-4.492-1.9-5.644-3.5-.8302549-1.1812294-1.5173933-2.4568161-2.047-3.8 1.3626355.1929225 2.7367923.2931528 4.113.3 4.052 0 7.278-.99 9.638-2.956zm-11.06-19.044c0 1.6568542-1.3431458 3-3 3s-3-1.3431458-3-3 1.3431458-3 3-3 3 1.3431458 3 3zm-27 3c-1.6568542 0-3-1.3431458-3-3s1.3431458-3 3-3 3 1.3431458 3 3-1.3431458 3-3 3zm-12.778 14.508c-2.02244531-1.7752175-3.19403142-4.327108-3.222-7.018 0-1.566.756-5 3-5 .76564652-.0252253 1.52270358.1675936 2.183.556-1.67722895 1.0723051-2.49277785 3.0881109-2.033 5.025.372 1.277 1.757 3.419 6.85 3.419 3.333 0 5.875-1.207 7.409-3.444.224675 2.86911-.1036004 5.7546745-.967 8.5-5.942.99-10.398.317-13.22-2.038zm17.778 17.492c-1.3775517.089159-2.7542371-.186799-3.991-.8 3.717-2.529 7.374-6.827 9.991-13.119v6.919c0 3.193-1.041 7-6 7zm14 0c-4.959 0-6-3.807-6-7v-6.917c2.617 6.292 6.274 10.59 9.991 13.119-1.2369505.6125118-2.6136267.8877781-3.991.798zm13-4c2.6 0 4.521-.7 5.7-2.076 1.1485017-1.5002904 1.5742866-3.4318821 1.163-5.276.810082 1.3024352 1.2064986 2.8197663 1.137 4.352 0 4.841-2.775 7-9 7-5.04 0-12.01-4.587-16.22-14.833-.4591108-1.1318453-1.5585842-1.8723476-2.78-1.8723476s-2.3208892.7405023-2.78 1.8723476c-4.21 10.246-11.18 14.833-16.22 14.833-6.225 0-9-2.159-9-7-.07449561-1.5254753.32324309-3.0368125 1.139-4.328-.41117488 1.8362128.01414008 3.7602043 1.161 5.252 1.179 1.376 3.1 2.076 5.7 2.076 2.711 0 5.224-1.5 7.266-4.332 3.788-5.254 5.068-13.829 3.683-17.981-.212-.645-.439-1.279-.671-1.907-.3001391-.7807347-.86028-1.4341147-1.586-1.85 1.8073926-.2151613 3.3537598-1.3984784 4.033854-3.0868013s.3857454-3.6131215-.7678383-5.0210302-2.9829233-2.0749977-4.7720157-1.7401685c.0945153-.2967654.1489964-.6048188.162-.916.0430241-1.6665972.2537537-3.324627.629-4.949 1.505-6.779 5.551-10.217 12.023-10.217s10.518 3.438 12.024 10.219c.374623 1.6241199.5850143 3.2817887.628 4.948.0130921.3108446.0675722.6185558.162.915-1.7748885-.3031698-3.575248.3749645-4.7090689 1.7737466-1.133821 1.3987821-1.4246422 3.3005138-.76068 4.9742209s2.1793728 2.8589037 3.9637489 3.1000325c-.72572.4158853-1.2858609 1.0692653-1.586 1.85-.232.628-.459 1.262-.67 1.9-1.386 4.155-.106 12.73 3.682 17.984 2.042 2.836 4.555 4.336 7.266 4.336zm-9.408-19.954c1.534 2.237 4.076 3.444 7.408 3.444 5.093 0 6.478-2.142 6.85-3.419.4635536-1.9407303-.362999-3.9608345-2.054-5.02.667604-.3897821 1.431285-.5841673 2.204-.561 2.244 0 3 3.434 3 5-.0279686 2.690892-1.1995547 5.2427825-3.222 7.018-2.821 2.354-7.278 3.026-13.22 2.039-.863849-2.745568-1.1918007-5.631611-.966-8.501z"/><circle id="Oval" cx="20" cy="23" r="1"/><circle id="Oval" cx="42" cy="23" r="1"/><path id="Shape" d="m4 15c0 2.209139 1.790861 4 4 4s4-1.790861 4-4-1.790861-4-4-4-4 1.790861-4 4zm4-2c1.1045695 0 2 .8954305 2 2s-.8954305 2-2 2-2-.8954305-2-2 .8954305-2 2-2z"/><path id="Shape" d="m17 7c0-1.65685425-1.3431458-3-3-3s-3 1.34314575-3 3 1.3431458 3 3 3 3-1.34314575 3-3zm-4 0c0-.55228475.4477153-1 1-1s1 .44771525 1 1-.4477153 1-1 1-1-.44771525-1-1z"/><circle id="Oval" cx="8" cy="8" r="1"/><path id="Shape" d="m54 19c2.209139 0 4-1.790861 4-4s-1.790861-4-4-4-4 1.790861-4 4 1.790861 4 4 4zm0-6c1.1045695 0 2 .8954305 2 2s-.8954305 2-2 2-2-.8954305-2-2 .8954305-2 2-2z"/><path id="Shape" d="m48 4c-1.2133867 0-2.3072956.73092653-2.7716386 1.8519497s-.2076757 2.41137666.6503183 3.26937064c.8579939.85799399 2.1483474 1.11466126 3.2693706.65031826s1.8519497-1.55825187 1.8519497-2.7716386c0-1.65685425-1.3431458-3-3-3zm0 4c-.5522847 0-1-.44771525-1-1s.4477153-1 1-1 1 .44771525 1 1-.4477153 1-1 1z"/><circle id="Oval" cx="54" cy="8" r="1"/><path id="Shape" d="m31 35c-.5522847 0-1 .4477153-1 1v2c0 .5522847.4477153 1 1 1s1-.4477153 1-1v-2c0-.5522847-.4477153-1-1-1z"/></g></g></svg>