<svg height="512" viewBox="0 0 60 60" width="512" xmlns="http://www.w3.org/2000/svg"><g id="Page-1" fill="none" fill-rule="evenodd"><g id="036---Octopus" fill-rule="nonzero" transform="translate(-1)"><g id="Icons" transform="translate(1 1)"><path id="Shape" d="m59 50c0 6-4 8-10 8-2.2657031-.0707555-4.4729145-.7363677-6.4-1.93-3.88-2.26-7.9-6.6-10.74-13.52-.3085141-.7557802-1.0436762-1.2497365-1.86-1.2497365s-1.5514859.4939563-1.86 1.2497365c-2.84 6.92-6.86 11.26-10.74 13.52-1.9270855 1.1936323-4.1342969 1.8592445-6.4 1.93-6 0-10-2-10-8-.07475652-1.7351597.38230403-3.4517535 1.31-4.92.26813617-.3925568.7744644-.5438317 1.21399919-.3627047s.69228234.6452078.60600081 1.1127047c-.43 2.74.27 6.17 5.87 6.17 4.39 0 7.57-4.5 9.22-9.56 1.216-3.739 1.9-8.329.46-12.38v-.01c-.417-1.174-.66-1.97-1.95-2.5-1.8126101-.7382324-3.1502463-2.3154348-3.58262-4.2242552s.0950536-3.9084849 1.41262-5.3557448c.4731302-.4962781.753314-1.1453116.79-1.83.0430156-1.7308511.2607881-3.4529285.65-5.14 2-9 8-11 13-11s11 2 13 11c.3892119 1.6870715.6069844 3.4091489.65 5.14.036686.6846884.3168698 1.3337219.79 1.83 1.3170998 1.4474422 1.844226 3.4469343 1.4118919 5.3555799s-1.7696243 3.4858221-3.5818919 4.2244201c-1.282.527-1.53 1.317-1.95 2.5v.01c-1.439 4.057-.753 8.651.46 12.38 1.65 5.06 4.83 9.56 9.22 9.56 5.6 0 6.3-3.43 5.87-6.17-.0862815-.4674969.166466-.9315777.6060008-1.1127047s.945863-.0298521 1.2139992.3627047c.927696 1.4682465 1.3847565 3.1848403 1.31 4.92z" fill="#e91e63"/><g fill="#ad1457"><path id="Shape" d="m40 11c.3892119 1.6870715.6069844 3.4091489.65 5.14.036686.6846884.3168698 1.3337219.79 1.83 1.3170998 1.4474422 1.844226 3.4469343 1.4118919 5.3555799s-1.7696243 3.4858221-3.5818919 4.2244201c-1.282.527-1.53 1.317-1.95 2.5v.01c-1.439 4.057-.753 8.651.46 12.38 1.65 5.06 4.83 9.56 9.22 9.56.5870914.0022073 1.1733796-.0436121 1.753-.137-3.745-.758-6.484-4.857-7.973-9.423-1.213-3.729-1.9-8.323-.46-12.38v-.01c.42-1.183.668-1.973 1.95-2.5 1.8122676-.738598 3.1495578-2.3157745 3.5818919-4.2244201s-.0947921-3.9081377-1.4118919-5.3555799c-.4731302-.4962781-.753314-1.1453116-.79-1.83-.0430156-1.7308511-.2607881-3.4529285-.65-5.14-2-9-8-11-13-11-.491 0-.994.026-1.5.07 4.642.398 9.7 2.815 11.5 10.93z"/><path id="Shape" d="m57.69 45.08c-.2681362-.3925568-.7744644-.5438317-1.2139992-.3627047s-.6922823.6452078-.6060008 1.1127047c.1360034.799927.1360034 1.617073 0 2.417.0882403.5801331.131702 1.1661969.13 1.753 0 5.358-3.195 7.521-8.149 7.923.3811423.048345.7648151.0740568 1.149.077 6 0 10-2 10-8 .0747565-1.7351597-.382304-3.4517535-1.31-4.92z"/><path id="Shape" d="m30 41.2999288v8.7000712c0 3-1 8-7 8-3.58 0-5.03-1.07-5.6-1.93 3.88-2.26 7.9-6.6 10.74-13.52.3027903-.7604559 1.0415091-1.2569067 1.86-1.2500712z"/><path id="Shape" d="m42.6 56.07c-.57.86-2.02 1.93-5.6 1.93-6 0-7-5-7-8v-8.7000712c.8184909-.0068355 1.5572097.4896153 1.86 1.2500712 2.84 6.92 6.86 11.26 10.74 13.52z"/></g><path id="Shape" d="m19.22 42.44c-17.21 3.14-18.22-7.95-18.22-9.95s1-6 4-6c.95870993-.0251958 1.90503965.2209193 2.73.71.28857947.1850195.46227728.5049612.46024893.847753-.00202836.3427917-.17950016.6606555-.47024893.842247-2.34 1.49-3.41 6.6 4.28 6.6 5.12 0 7-2.91 7.68-5.43.11.31.22.62.32.94.9 2.71.58 7.26-.78 11.44z" fill="#e91e63"/><path id="Shape" d="m20 31c-.1-.32-.21-.63-.32-.94-.3481927 1.4254561-1.1201 2.7119683-2.214 3.69.109197 2.9479513-.3128588 5.8915025-1.246 8.69-1.355217.2499546-2.724431.4169319-4.1.5 2.3782265.1263341 4.7629517-.0416043 7.1-.5 1.36-4.18 1.68-8.73.78-11.44z" fill="#ad1457"/><path id="Shape" d="m59 32.49c0 2-1.01 13.09-18.22 9.95-1.36-4.18-1.68-8.73-.78-11.44.1-.32.21-.63.32-.94.68 2.52 2.56 5.43 7.68 5.43 7.69 0 6.62-5.11 4.28-6.6-.2907488-.1815915-.4682206-.4994553-.4702489-.842247-.0020284-.3427918.1716694-.6627335.4602489-.847753.8249604-.4890807 1.7712901-.7351958 2.73-.71 3 0 4 4 4 6z" fill="#e91e63"/><path id="Shape" d="m55 26.49c-.5964883-.0044802-1.189788.0873681-1.757.272 2.036.922 2.757 4.038 2.757 5.728s-.716 9.754-11.116 10.454c13.265.779 14.116-8.627 14.116-10.454 0-2-1-6-4-6z" fill="#ad1457"/><circle id="Oval" cx="18" cy="22" fill="#f5f5f5" r="4"/><path id="Shape" d="m18 18c-.5146843.0021695-1.0240724.1040471-1.5.3 1.5110147.6085107 2.5007405 2.0740584 2.5007405 3.703s-.9897258 3.0944893-2.5007405 3.703c1.496414.6077595 3.211506.2559465 4.3478056-.8918556s1.4708211-2.8663504.8480212-4.3565675c-.6227999-1.490217-2.0807039-2.4596648-3.6958268-2.4575769z" fill="#cfd8dc"/><circle id="Oval" cx="42" cy="22" fill="#f5f5f5" r="4"/><path id="Shape" d="m42 18c-.5146843.0021695-1.0240724.1040471-1.5.3 1.5110147.6085107 2.5007405 2.0740584 2.5007405 3.703s-.9897258 3.0944893-2.5007405 3.703c1.496414.6077595 3.211506.2559465 4.3478056-.8918556s1.4708211-2.8663504.8480212-4.3565675c-.6227999-1.490217-2.0807039-2.4596648-3.6958268-2.4575769z" fill="#cfd8dc"/><circle id="Oval" cx="7" cy="14" fill="#02a9f4" r="3"/><circle id="Oval" cx="13" cy="6" fill="#02a9f4" r="2"/><circle id="Oval" cx="53" cy="14" fill="#02a9f4" r="3"/><circle id="Oval" cx="47" cy="6" fill="#02a9f4" r="2"/></g><g id="Icons_copy"><path id="Shape" d="m29 6.151c-.5205067-.00140428-.9528966-.4018589-.9941555-.9207297-.041259-.51887081.3224116-.98262566.8361555-1.0662703.7138006-.11219832 1.4354417-.16704037 2.158-.164.5522847 0 1 .44771525 1 1s-.4477153 1-1 1c-.6163615-.00307305-1.2319844.04307359-1.841.138-.052552.00870071-.1057326.0130488-.159.013z" fill="#f5f5f5"/><path id="Shape" d="m21.9 13.874c-.3034776.0002514-.5906495-.1373237-.7806334-.3739771s-.2622214-.5467766-.1963666-.8430229c.4063491-2.4708084 1.6053281-4.74241022 3.416-6.472.4164227-.36285108 1.0481489-.3194227 1.411.097s.3194227 1.04814892-.097 1.411c-1.4818695 1.45483791-2.4556324 3.3483632-2.777 5.4-.1024937.4566467-.5079924.7811288-.976.781z" fill="#f5f5f5"/><g fill="#000"><path id="Shape" d="m57.06 42.044c2.4697914-2.1614642 3.9025933-5.2721716 3.94-8.554 0-2.706-1.357-7-5-7-1.1473224-.0249816-2.2783821.2745083-3.263.864-.5755442.3592174-.9254797.9895547-.926 1.668-.0049598.6931061.3471844 1.3399632.932 1.712.9195535.60153 1.3876513 1.69665 1.187 2.777-.367 1.258-2.163 1.979-4.93 1.979-3.5 0-5.716-1.492-6.616-4.409.073-.2.141-.408.215-.608.1919675-.4637085.571266-.824478 1.044-.993 2.1134434-.8631998 3.6731793-2.7027681 4.1791413-4.9289215.5059621-2.2261534-.1054237-4.5591761-1.6381413-6.2510785-.3115017-.3166923-.5000927-.733932-.532-1.177-.0460175-1.7977519-.2721482-3.586362-.675-5.339-2.165-9.74-8.795-11.784-13.977-11.784s-11.812 2.044-13.976 11.781c-.4034736 1.7528915-.6299426 3.5418625-.676 5.34-.0316749.4434195-.2202828.8610512-.532 1.178-1.5331572 1.6919091-2.1448182 4.0252206-1.6388327 6.2516765.5059856 2.2264559 2.0660234 4.0662259 4.1798327 4.9293235.472734.168522.8520325.5292915 1.044.993.074.2.142.407.215.608-.9 2.919-3.116 4.409-6.616 4.409-2.767 0-4.563-.721-4.93-1.979-.20052799-1.0826348.26967569-2.1796453 1.192-2.781.58241383-.3718003.9326175-1.0170515.927-1.708-.0011971-.6808542-.35352603-1.3129293-.932-1.672-.98325339-.5870996-2.11208077-.8851627-3.257-.86-3.643 0-5 4.294-5 7 .03740674 3.2818284 1.4702086 6.3925358 3.94 8.554 2.36 1.967 5.586 2.956 9.638 2.956 1.3762077-.0068472 2.7503645-.1070775 4.113-.3-.5296067 1.3431839-1.2167451 2.6187706-2.047 3.8-1.152 1.6-3.065 3.5-5.644 3.5-1.993 0-3.4-.463-4.183-1.377-.73791234-1.0611214-.99222355-2.384993-.7-3.644.16402154-.9371973-.35864733-1.8593076-1.247-2.2-.86812841-.3544762-1.86575162-.0458077-2.382.737-1.04258496 1.6339511-1.56170526 3.5471606-1.488 5.484 0 5.972 3.7 9 11 9 2.1608422-.0604499 4.2753919-.6401074 6.165-1.69.935.877 2.652 1.69 5.835 1.69 2.9504072.1857567 5.7188699-1.4357715 7-4.1 1.2811301 2.6642285 4.0495928 4.2857567 7 4.1 3.183 0 4.9-.813 5.835-1.69 1.8896081 1.0498926 4.0041578 1.6295501 6.165 1.69 7.3 0 11-3.028 11-9 .0739456-1.9361365-.4440777-3.8488111-1.485-5.483-.5168506-.7826311-1.5145583-1.0911962-2.383-.737-.8880798.3410094-1.4106095 1.262874-1.247 2.2.2921836 1.2586868.0378644 2.5822363-.7 3.643-.785.914-2.192 1.377-4.185 1.377-2.579 0-4.492-1.9-5.644-3.5-.8302549-1.1812294-1.5173933-2.4568161-2.047-3.8 1.3626355.1929225 2.7367923.2931528 4.113.3 4.052 0 7.278-.99 9.638-2.956zm-11.06-19.044c0 1.6568542-1.3431458 3-3 3s-3-1.3431458-3-3 1.3431458-3 3-3 3 1.3431458 3 3zm-27 3c-1.6568542 0-3-1.3431458-3-3s1.3431458-3 3-3 3 1.3431458 3 3-1.3431458 3-3 3zm-12.778 14.508c-2.02244531-1.7752175-3.19403142-4.327108-3.222-7.018 0-1.566.756-5 3-5 .76564652-.0252253 1.52270358.1675936 2.183.556-1.67722895 1.0723051-2.49277785 3.0881109-2.033 5.025.372 1.277 1.757 3.419 6.85 3.419 3.333 0 5.875-1.207 7.409-3.444.224675 2.86911-.1036004 5.7546745-.967 8.5-5.942.99-10.398.317-13.22-2.038zm17.778 17.492c-1.3775517.089159-2.7542371-.186799-3.991-.8 3.717-2.529 7.374-6.827 9.991-13.119v6.919c0 3.193-1.041 7-6 7zm14 0c-4.959 0-6-3.807-6-7v-6.917c2.617 6.292 6.274 10.59 9.991 13.119-1.2369505.6125118-2.6136267.8877781-3.991.798zm13-4c2.6 0 4.521-.7 5.7-2.076 1.1485017-1.5002904 1.5742866-3.4318821 1.163-5.276.810082 1.3024352 1.2064986 2.8197663 1.137 4.352 0 4.841-2.775 7-9 7-5.04 0-12.01-4.587-16.22-14.833-.4591108-1.1318453-1.5585842-1.8723476-2.78-1.8723476s-2.3208892.7405023-2.78 1.8723476c-4.21 10.246-11.18 14.833-16.22 14.833-6.225 0-9-2.159-9-7-.07449561-1.5254753.32324309-3.0368125 1.139-4.328-.41117488 1.8362128.01414008 3.7602043 1.161 5.252 1.179 1.376 3.1 2.076 5.7 2.076 2.711 0 5.224-1.5 7.266-4.332 3.788-5.254 5.068-13.829 3.683-17.981-.212-.645-.439-1.279-.671-1.907-.3001391-.7807347-.86028-1.4341147-1.586-1.85 1.8073926-.2151613 3.3537598-1.3984784 4.033854-3.0868013s.3857454-3.6131215-.7678383-5.0210302-2.9829233-2.0749977-4.7720157-1.7401685c.0945153-.2967654.1489964-.6048188.162-.916.0430241-1.6665972.2537537-3.324627.629-4.949 1.505-6.779 5.551-10.217 12.023-10.217s10.518 3.438 12.024 10.219c.374623 1.6241199.5850143 3.2817887.628 4.948.0130921.3108446.0675722.6185558.162.915-1.7748885-.3031698-3.575248.3749645-4.7090689 1.7737466-1.133821 1.3987821-1.4246422 3.3005138-.76068 4.9742209s2.1793728 2.8589037 3.9637489 3.1000325c-.72572.4158853-1.2858609 1.0692653-1.586 1.85-.232.628-.459 1.262-.67 1.9-1.386 4.155-.106 12.73 3.682 17.984 2.042 2.836 4.555 4.336 7.266 4.336zm-9.408-19.954c1.534 2.237 4.076 3.444 7.408 3.444 5.093 0 6.478-2.142 6.85-3.419.4635536-1.9407303-.362999-3.9608345-2.054-5.02.667604-.3897821 1.431285-.5841673 2.204-.561 2.244 0 3 3.434 3 5-.0279686 2.690892-1.1995547 5.2427825-3.222 7.018-2.821 2.354-7.278 3.026-13.22 2.039-.863849-2.745568-1.1918007-5.631611-.966-8.501z"/><circle id="Oval" cx="20" cy="23" r="1"/><circle id="Oval" cx="42" cy="23" r="1"/><path id="Shape" d="m4 15c0 2.209139 1.790861 4 4 4s4-1.790861 4-4-1.790861-4-4-4-4 1.790861-4 4zm4-2c1.1045695 0 2 .8954305 2 2s-.8954305 2-2 2-2-.8954305-2-2 .8954305-2 2-2z"/><path id="Shape" d="m17 7c0-1.65685425-1.3431458-3-3-3s-3 1.34314575-3 3 1.3431458 3 3 3 3-1.34314575 3-3zm-4 0c0-.55228475.4477153-1 1-1s1 .44771525 1 1-.4477153 1-1 1-1-.44771525-1-1z"/><circle id="Oval" cx="8" cy="8" r="1"/><path id="Shape" d="m50 15c0 2.209139 1.790861 4 4 4s4-1.790861 4-4-1.790861-4-4-4-4 1.790861-4 4zm4-2c1.1045695 0 2 .8954305 2 2s-.8954305 2-2 2-2-.8954305-2-2 .8954305-2 2-2z"/><path id="Shape" d="m48 4c-1.2133867 0-2.3072956.73092653-2.7716386 1.8519497s-.2076757 2.41137666.6503183 3.26937064c.8579939.85799399 2.1483474 1.11466126 3.2693706.65031826s1.8519497-1.55825187 1.8519497-2.7716386c0-1.65685425-1.3431458-3-3-3zm0 4c-.5522847 0-1-.44771525-1-1s.4477153-1 1-1 1 .44771525 1 1-.4477153 1-1 1z"/><circle id="Oval" cx="54" cy="8" r="1"/><path id="Shape" d="m31 35c-.5522847 0-1 .4477153-1 1v2c0 .5522847.4477153 1 1 1s1-.4477153 1-1v-2c0-.5522847-.4477153-1-1-1z"/></g></g></g></g></svg>